<svg xmlns="http://www.w3.org/2000/svg" viewBox="0 0 546.27 534.16"><defs><filter id="b" color-interpolation-filters="sRGB"><feGaussianBlur in="SourceGraphic" result="result0" stdDeviation="6"/><feDiffuseLighting lighting-color="#fff" result="result5" surfaceScale="4"><feDistantLight azimuth="235" elevation="45"/></feDiffuseLighting><feComposite in="result5" in2="SourceGraphic" k1="1.4" operator="arithmetic" result="fbSourceGraphic"/><feGaussianBlur in="fbSourceGraphic" result="result0" stdDeviation="6"/><feSpecularLighting in="result0" lighting-color="#fff" result="result1" specularExponent="25" surfaceScale="4"><feDistantLight azimuth="235" elevation="45"/></feSpecularLighting><feComposite in="fbSourceGraphic" in2="result1" k2="1" k3="1" operator="arithmetic" result="result4"/><feComposite in="result4" in2="SourceGraphic" operator="in" result="result2"/></filter><filter id="a" width="1.106" height="1.522" x="-.053" y="-.261" color-interpolation-filters="sRGB"><feGaussianBlur stdDeviation="8.027"/></filter></defs><path d="M447.54 472.38c0 20.365-81.188 36.874-181.34 36.874S84.86 492.745 84.86 472.38s81.188-36.874 181.34-36.874 181.34 16.509 181.34 36.874z" filter="url(#a)" opacity=".15" transform="matrix(1.2395 0 0 1.5867 -32.329 -304.45)"/><path fill="#504416" d="M53.97 248.03h388.72L383.12 451.51s-36.597 18-134.79 18c-98.19 0-134.79-18-134.79-18z"/><path fill="none" stroke="#806600" stroke-linecap="round" stroke-linejoin="round" stroke-width="24" d="M77.747 313.59s-26.146-67.804-23.962-102.98C61.683 83.4 155.265 41.63 249.825 41.63c94.555 0 194.59 72.953 196.04 168.98.534 35.396-25.962 102.98-25.962 102.98"/><path fill="none" stroke="#000" stroke-linecap="round" stroke-linejoin="round" stroke-width="24" d="M20.173 503.81S-5.973 436.006-3.789 400.83c7.898-127.21 101.48-168.98 196.04-168.98 94.555 0 194.59 72.953 196.04 168.98.534 35.396-25.962 102.98-25.962 102.98" filter="url(#b)" opacity=".5" transform="translate(57.574 -190.22)"/><path fill="none" stroke="#806600" stroke-linecap="round" stroke-linejoin="round" stroke-width="16" d="m251.104 255.05-.56 191.48M51.663 247.45l57.2 195.79M153.344 246.82l27.2 200.89M448.304 244.16l-56.08 198.53M347.984 247.72l-26.88 200.91"/><g fill="none" stroke="#a80" stroke-linecap="round" stroke-linejoin="round" stroke-width="12.422"><path d="M203.71 250.68s37.038 10 56 10 56-10 56-10" transform="matrix(.95212 0 0 -.68063 -44.346 423.82)"/><path d="M303.71 250.68s37.038 10 56 10 56-10 56-10" transform="matrix(.95212 0 0 -.68063 -44.346 423.82)"/><path d="M403.71 250.68s37.107 12.506 56 15.877c20.63 3.681 62.302 4.692 62.302 4.692M101.61 265.37s38.812.753 58.101-1.754c18.838-2.448 56-12.938 56-12.938" transform="matrix(.95212 0 0 -.68063 -44.346 423.82)"/></g><g fill="none" stroke="#d4aa00" stroke-linecap="round" stroke-linejoin="round" stroke-width="10"><path d="M176.104 461.83s25.8 10 39.326 10 39.326-10 39.326-10"/><path d="M246.324 461.83s25.8 10 39.326 10 39.326-10 39.326-10M316.554 455.83s25.964 8.638 39.326 8c13.69-.654 39.326-12 39.326-12M105.874 451.83s25.636 11.346 39.326 12c13.362.638 39.326-8 39.326-8"/></g><g fill="none" stroke="#a80" stroke-linecap="round" stroke-linejoin="round" stroke-width="10"><path d="M209.794 447.61s27.001 7.48 40.824 7.48 40.824-7.48 40.824-7.48M284.484 445.61s27.001 7.48 40.824 7.48 40.824-7.48 40.824-7.48"/><path d="M147.064 445.61s27.001 7.48 40.824 7.48 40.824-7.48 40.824-7.48"/><path d="M99.584 443.61s17.809 7.48 27.217 7.48c9.408 0 27.217-7.48 27.217-7.48M400.484 443.61s-17.809 7.48-27.217 7.48c-9.408 0-27.217-7.48-27.217-7.48"/></g><g fill="none" stroke="#d4aa00" stroke-linecap="round" stroke-linejoin="round" stroke-width="11.58"><path d="M203.71 250.68s37.038 10 56 10 56-10 56-10" transform="matrix(.74579 0 0 1 19.561 181.15)"/><path d="M303.71 250.68s37.038 10 56 10 56-10 56-10" transform="matrix(.74579 0 0 1 19.561 181.15)"/><path d="M403.71 250.68s37.038 10 56 10 56-10 56-10M103.71 250.68s37.038 10 56 10 56-10 56-10" transform="matrix(.74579 0 0 1 19.561 181.15)"/></g><g fill="none" stroke="#a80" stroke-linecap="round" stroke-linejoin="round" stroke-width="11.421"><path d="M255.34 238.68s36.151 10 54.659 10 54.659-10 54.659-10" transform="matrix(.76659 0 0 1 13.003 181.15)"/><path d="M355.34 238.68s36.151 10 54.659 10 54.659-10 54.659-10M171.34 238.68s36.151 10 54.659 10 54.659-10 54.659-10" transform="matrix(.76659 0 0 1 13.003 181.15)"/><path d="M107.77 238.68s23.845 10 36.441 10 36.441-10 36.441-10M510.65 238.68s-23.845 10-36.441 10-36.441-10-36.441-10" transform="matrix(.76659 0 0 1 13.003 181.15)"/></g><g fill="none" stroke="#d4aa00" stroke-linecap="round" stroke-linejoin="round" stroke-width="11.419"><path d="M203.71 250.68s37.038 10 56 10 56-10 56-10" transform="matrix(.7669 0 0 1 13.023 159.15)"/><path d="M303.71 250.68s37.038 10 56 10 56-10 56-10" transform="matrix(.7669 0 0 1 13.023 159.15)"/><path d="M403.71 250.68s37.038 10 56 10 56-10 56-10M103.71 250.68s37.038 10 56 10 56-10 56-10" transform="matrix(.7669 0 0 1 13.023 159.15)"/></g><g fill="none" stroke="#a80" stroke-linecap="round" stroke-linejoin="round" stroke-width="11.095"><path d="M255.34 238.68s36.151 10 54.659 10 54.659-10 54.659-10" transform="matrix(.81238 0 0 1 -1.156 157.15)"/><path d="M355.34 238.68s36.151 10 54.659 10 54.659-10 54.659-10M171.34 238.68s36.151 10 54.659 10 54.659-10 54.659-10" transform="matrix(.81238 0 0 1 -1.156 157.15)"/><path d="M107.77 238.68s23.845 10 36.441 10 36.441-10 36.441-10M510.65 238.68s-23.845 10-36.441 10-36.441-10-36.441-10" transform="matrix(.81238 0 0 1 -1.156 157.15)"/></g><g fill="none" stroke="#d4aa00" stroke-linecap="round" stroke-linejoin="round" stroke-width="11.145"><path d="M203.71 250.68s37.038 10 56 10 56-10 56-10" transform="matrix(.80508 0 0 1 1.199 133.15)"/><path d="M303.71 250.68s37.038 10 56 10 56-10 56-10" transform="matrix(.80508 0 0 1 1.199 133.15)"/><path d="M403.71 250.68s37.038 10 56 10 56-10 56-10M103.71 250.68s37.038 10 56 10 56-10 56-10" transform="matrix(.80508 0 0 1 1.199 133.15)"/></g><g fill="none" stroke="#a80" stroke-linecap="round" stroke-linejoin="round" stroke-width="10.892"><path d="M255.34 238.68s36.151 10 54.659 10 54.659-10 54.659-10" transform="matrix(.84293 0 0 1 -10.602 131.15)"/><path d="M355.34 238.68s36.151 10 54.659 10 54.659-10 54.659-10M171.34 238.68s36.151 10 54.659 10 54.659-10 54.659-10" transform="matrix(.84293 0 0 1 -10.602 131.15)"/><path d="M107.77 238.68s23.845 10 36.441 10 36.441-10 36.441-10M510.65 238.68s-23.845 10-36.441 10-36.441-10-36.441-10" transform="matrix(.84293 0 0 1 -10.602 131.15)"/></g><g fill="none" stroke="#d4aa00" stroke-linecap="round" stroke-linejoin="round" stroke-width="10.905"><path d="M203.71 250.68s37.038 10 56 10 56-10 56-10" transform="matrix(.84084 0 0 1 -9.877 107.15)"/><path d="M303.71 250.68s37.038 10 56 10 56-10 56-10" transform="matrix(.84084 0 0 1 -9.877 107.15)"/><path d="M403.71 250.68s37.038 10 56 10 56-10 56-10M103.71 250.68s37.038 10 56 10 56-10 56-10" transform="matrix(.84084 0 0 1 -9.877 107.15)"/></g><g fill="none" stroke="#a80" stroke-linecap="round" stroke-linejoin="round" stroke-width="10.7"><path d="M255.34 238.68s36.151 10 54.659 10 54.659-10 54.659-10" transform="matrix(.87352 0 0 1 -20.061 105.15)"/><path d="M355.34 238.68s36.151 10 54.659 10 54.659-10 54.659-10M171.34 238.68s36.151 10 54.659 10 54.659-10 54.659-10" transform="matrix(.87352 0 0 1 -20.061 105.15)"/><path d="M107.77 238.68s23.845 10 36.441 10 36.441-10 36.441-10M510.65 238.68s-23.845 10-36.441 10-36.441-10-36.441-10" transform="matrix(.87352 0 0 1 -20.061 105.15)"/></g><g fill="none" stroke="#d4aa00" stroke-linecap="round" stroke-linejoin="round" stroke-width="10.657"><path d="M203.71 250.68s37.038 10 56 10 56-10 56-10" transform="matrix(.88056 0 0 1 -22.178 81.15)"/><path d="M303.71 250.68s37.038 10 56 10 56-10 56-10" transform="matrix(.88056 0 0 1 -22.178 81.15)"/><path d="M403.71 250.68s37.038 10 56 10 56-10 56-10M103.71 250.68s37.038 10 56 10 56-10 56-10" transform="matrix(.88056 0 0 1 -22.178 81.15)"/></g><g fill="none" stroke="#a80" stroke-linecap="round" stroke-linejoin="round" stroke-width="10.495"><path d="M255.34 238.68s36.151 10 54.659 10 54.659-10 54.659-10" transform="matrix(.90797 0 0 1 -30.713 77.15)"/><path d="M355.34 238.68s36.151 10 54.659 10 54.659-10 54.659-10M171.34 238.68s36.151 10 54.659 10 54.659-10 54.659-10" transform="matrix(.90797 0 0 1 -30.713 77.15)"/><path d="M107.77 238.68s23.845 10 36.441 10 36.441-10 36.441-10M510.65 238.68s-23.845 10-36.441 10-36.441-10-36.441-10" transform="matrix(.90797 0 0 1 -30.713 77.15)"/></g><g fill="none" stroke="#d4aa00" stroke-linecap="round" stroke-linejoin="round" stroke-width="10.469"><path d="M203.71 250.68s37.038 10 56 10 56-10 56-10" transform="matrix(.9124 0 0 1 -32.04 53.15)"/><path d="M303.71 250.68s37.038 10 56 10 56-10 56-10" transform="matrix(.9124 0 0 1 -32.04 53.15)"/><path d="M403.71 250.68s37.038 10 56 10 56-10 56-10M103.71 250.68s37.038 10 56 10 56-10 56-10" transform="matrix(.9124 0 0 1 -32.04 53.15)"/></g><g fill="none" stroke="#a80" stroke-linecap="round" stroke-linejoin="round" stroke-width="10.218"><path d="M255.34 238.68s36.151 10 54.659 10 54.659-10 54.659-10" transform="matrix(.95779 0 0 1 -46.116 49.15)"/><path d="M355.34 238.68s36.151 10 54.659 10 54.659-10 54.659-10M171.34 238.68s36.151 10 54.659 10 54.659-10 54.659-10" transform="matrix(.95779 0 0 1 -46.116 49.15)"/><path d="M105.68 236.68s25.026 11.771 38.529 12c12.634.214 36.441-10 36.441-10M512.74 236.68s-25.026 11.771-38.529 12c-12.634.214-36.441-10-36.441-10" transform="matrix(.95779 0 0 1 -46.116 49.15)"/></g><g fill="none" stroke="#d4aa00" stroke-linecap="round" stroke-linejoin="round" stroke-width="10.248"><path d="M203.71 250.68s37.038 10 56 10 56-10 56-10" transform="matrix(.95222 0 0 1 -44.376 25.15)"/><path d="M303.71 250.68s37.038 10 56 10 56-10 56-10" transform="matrix(.95222 0 0 1 -44.376 25.15)"/><path d="M403.71 250.68s40.059 7.124 60.201 6c19.101-1.066 56-12 56-12M99.514 244.68s36.734 12.916 56 14c20.226 1.139 60.201-8 60.201-8" transform="matrix(.95222 0 0 1 -44.376 25.15)"/></g><g fill="none" stroke="#a80" stroke-linecap="round" stroke-linejoin="round" stroke-width="10"><path d="M196.164 259.83s36.151 10 54.659 10 54.659-10 54.659-10"/><path d="M296.164 259.83s36.151 10 54.659 10 54.659-10 54.659-10M112.164 259.83s36.151 10 54.659 10 54.659-10 54.659-10"/><path d="M46.594 255.83s25.214 9.396 38.441 10c12.298.562 36.441-6 36.441-6M453.474 253.83s-23.845 9.916-36.441 10c-13.24.088-38.441-10-38.441-10"/></g><g fill="none" stroke="#d4aa00" stroke-linecap="round" stroke-linejoin="round" stroke-width="10"><path d="M153.074 243.83s31.42 16.623 48.659 18c17.158 1.37 50.659-10 50.659-10"/><path d="M248.684 251.83s33.468 10.861 50.659 10c18.322-.918 52.659-16 52.659-16M346.284 243.83s36.271 8.97 54.659 8c18.782-.99 54.659-14 54.659-14M47.474 239.83s35.863 13.344 54.659 14c18.511.646 54.659-10 54.659-10"/></g></svg>